<mxfile host="Electron" agent="Mozilla/5.0 (X11; Linux x86_64) AppleWebKit/537.36 (KHTML, like Gecko) draw.io/26.0.4 Chrome/128.0.6613.186 Electron/32.2.5 Safari/537.36" version="26.0.4">
  <diagram name="Page-1" id="x7nHvP4f1uIkG3GaWKyV">
    <mxGraphModel dx="1114" dy="1198" grid="1" gridSize="10" guides="1" tooltips="1" connect="1" arrows="1" fold="1" page="1" pageScale="1" pageWidth="850" pageHeight="1100" math="0" shadow="0">
      <root>
        <mxCell id="0" />
        <mxCell id="1" parent="0" />
        <mxCell id="oGO0pihmNqeqZlC3qK27-12" style="edgeStyle=orthogonalEdgeStyle;rounded=0;orthogonalLoop=1;jettySize=auto;html=1;" edge="1" parent="1" source="oGO0pihmNqeqZlC3qK27-1" target="oGO0pihmNqeqZlC3qK27-11">
          <mxGeometry relative="1" as="geometry" />
        </mxCell>
        <mxCell id="oGO0pihmNqeqZlC3qK27-16" style="edgeStyle=orthogonalEdgeStyle;rounded=0;orthogonalLoop=1;jettySize=auto;html=1;" edge="1" parent="1" source="oGO0pihmNqeqZlC3qK27-1" target="oGO0pihmNqeqZlC3qK27-14">
          <mxGeometry relative="1" as="geometry">
            <Array as="points">
              <mxPoint x="715" y="370" />
              <mxPoint x="715" y="370" />
            </Array>
          </mxGeometry>
        </mxCell>
        <mxCell id="oGO0pihmNqeqZlC3qK27-1" value="" style="sketch=0;outlineConnect=0;fontColor=#232F3E;gradientColor=none;fillColor=#ED7100;strokeColor=none;dashed=0;verticalLabelPosition=bottom;verticalAlign=top;align=center;html=1;fontSize=12;fontStyle=0;aspect=fixed;pointerEvents=1;shape=mxgraph.aws4.spot_instance;" vertex="1" parent="1">
          <mxGeometry x="665" y="508" width="70" height="70" as="geometry" />
        </mxCell>
        <mxCell id="oGO0pihmNqeqZlC3qK27-7" style="edgeStyle=orthogonalEdgeStyle;rounded=0;orthogonalLoop=1;jettySize=auto;html=1;" edge="1" parent="1" source="oGO0pihmNqeqZlC3qK27-3" target="oGO0pihmNqeqZlC3qK27-6">
          <mxGeometry relative="1" as="geometry" />
        </mxCell>
        <mxCell id="oGO0pihmNqeqZlC3qK27-10" value="&amp;nbsp;Launch instances&amp;nbsp;" style="edgeStyle=orthogonalEdgeStyle;rounded=0;orthogonalLoop=1;jettySize=auto;html=1;fontStyle=1;fontSize=14;fontColor=#00CC00;" edge="1" parent="1" source="oGO0pihmNqeqZlC3qK27-3" target="oGO0pihmNqeqZlC3qK27-1">
          <mxGeometry relative="1" as="geometry" />
        </mxCell>
        <mxCell id="oGO0pihmNqeqZlC3qK27-3" value="&lt;h1 style=&quot;margin-top: 0px;&quot;&gt;Spot Request&lt;/h1&gt;&lt;p&gt;&lt;/p&gt;&lt;ul&gt;&lt;li&gt;Maximum price&lt;/li&gt;&lt;li&gt;Desired number of instances&lt;/li&gt;&lt;li&gt;Launch specification&lt;/li&gt;&lt;li&gt;&lt;b&gt;Request type: one-time | persistent&lt;/b&gt;&lt;/li&gt;&lt;li&gt;Valid from, Valid until&lt;/li&gt;&lt;/ul&gt;&lt;p&gt;&lt;/p&gt;" style="text;html=1;whiteSpace=wrap;overflow=hidden;rounded=0;strokeColor=default;" vertex="1" parent="1">
          <mxGeometry x="235" y="468" width="255" height="150" as="geometry" />
        </mxCell>
        <mxCell id="oGO0pihmNqeqZlC3qK27-9" style="edgeStyle=orthogonalEdgeStyle;rounded=0;orthogonalLoop=1;jettySize=auto;html=1;" edge="1" parent="1" source="oGO0pihmNqeqZlC3qK27-4" target="oGO0pihmNqeqZlC3qK27-3">
          <mxGeometry relative="1" as="geometry" />
        </mxCell>
        <mxCell id="oGO0pihmNqeqZlC3qK27-4" value="Create&lt;div&gt;request&lt;/div&gt;" style="text;html=1;align=center;verticalAlign=middle;resizable=0;points=[];autosize=1;strokeColor=none;fillColor=none;" vertex="1" parent="1">
          <mxGeometry x="95" y="523" width="60" height="40" as="geometry" />
        </mxCell>
        <mxCell id="oGO0pihmNqeqZlC3qK27-6" value="Request&lt;div&gt;Failed&lt;/div&gt;" style="text;html=1;align=center;verticalAlign=middle;resizable=0;points=[];autosize=1;strokeColor=#b85450;fillColor=#f8cecc;fontStyle=1;fontSize=14;" vertex="1" parent="1">
          <mxGeometry x="322.5" y="680" width="80" height="50" as="geometry" />
        </mxCell>
        <mxCell id="oGO0pihmNqeqZlC3qK27-11" value="Interrupt&lt;div&gt;(one-time)&lt;/div&gt;" style="text;html=1;align=center;verticalAlign=middle;resizable=0;points=[];autosize=1;strokeColor=#b85450;fillColor=#f8cecc;fontSize=14;fontStyle=1" vertex="1" parent="1">
          <mxGeometry x="655" y="680" width="90" height="50" as="geometry" />
        </mxCell>
        <mxCell id="oGO0pihmNqeqZlC3qK27-21" style="edgeStyle=orthogonalEdgeStyle;rounded=0;orthogonalLoop=1;jettySize=auto;html=1;" edge="1" parent="1" source="oGO0pihmNqeqZlC3qK27-14" target="oGO0pihmNqeqZlC3qK27-17">
          <mxGeometry relative="1" as="geometry" />
        </mxCell>
        <mxCell id="oGO0pihmNqeqZlC3qK27-14" value="Stop&lt;div&gt;(persistent)&lt;/div&gt;" style="text;html=1;align=center;verticalAlign=middle;resizable=0;points=[];autosize=1;strokeColor=none;fillColor=none;" vertex="1" parent="1">
          <mxGeometry x="675" y="290" width="80" height="40" as="geometry" />
        </mxCell>
        <mxCell id="oGO0pihmNqeqZlC3qK27-22" style="edgeStyle=orthogonalEdgeStyle;rounded=0;orthogonalLoop=1;jettySize=auto;html=1;" edge="1" parent="1" source="oGO0pihmNqeqZlC3qK27-17" target="oGO0pihmNqeqZlC3qK27-3">
          <mxGeometry relative="1" as="geometry" />
        </mxCell>
        <mxCell id="oGO0pihmNqeqZlC3qK27-17" value="Start&lt;div&gt;(persistent)&lt;/div&gt;" style="text;html=1;align=center;verticalAlign=middle;resizable=0;points=[];autosize=1;strokeColor=none;fillColor=none;" vertex="1" parent="1">
          <mxGeometry x="525" y="290" width="80" height="40" as="geometry" />
        </mxCell>
        <mxCell id="oGO0pihmNqeqZlC3qK27-20" style="edgeStyle=orthogonalEdgeStyle;rounded=0;orthogonalLoop=1;jettySize=auto;html=1;entryX=0.75;entryY=0;entryDx=0;entryDy=0;" edge="1" parent="1" source="oGO0pihmNqeqZlC3qK27-18" target="oGO0pihmNqeqZlC3qK27-3">
          <mxGeometry relative="1" as="geometry" />
        </mxCell>
        <mxCell id="oGO0pihmNqeqZlC3qK27-18" value="Interrupt&lt;div&gt;(persistent)&lt;/div&gt;" style="text;html=1;align=center;verticalAlign=middle;resizable=0;points=[];autosize=1;strokeColor=none;fillColor=none;" vertex="1" parent="1">
          <mxGeometry x="525" y="380" width="80" height="40" as="geometry" />
        </mxCell>
        <mxCell id="oGO0pihmNqeqZlC3qK27-19" style="edgeStyle=orthogonalEdgeStyle;rounded=0;orthogonalLoop=1;jettySize=auto;html=1;entryX=0.988;entryY=0.425;entryDx=0;entryDy=0;entryPerimeter=0;" edge="1" parent="1" source="oGO0pihmNqeqZlC3qK27-1" target="oGO0pihmNqeqZlC3qK27-18">
          <mxGeometry relative="1" as="geometry">
            <Array as="points">
              <mxPoint x="685" y="397" />
            </Array>
          </mxGeometry>
        </mxCell>
      </root>
    </mxGraphModel>
  </diagram>
</mxfile>
